<?xml version="1.0" encoding="utf-8"?>
<!-- Generator: Adobe Illustrator 16.0.0, SVG Export Plug-In . SVG Version: 6.00 Build 0)  -->
<!DOCTYPE svg PUBLIC "-//W3C//DTD SVG 1.1//EN" "http://www.w3.org/Graphics/SVG/1.1/DTD/svg11.dtd">
<svg version="1.1" id="Layer_1" xmlns="http://www.w3.org/2000/svg" xmlns:xlink="http://www.w3.org/1999/xlink" x="0px" y="0px"
	 width="5000px" height="4000px" viewBox="0 0 5000 4000" enable-background="new 0 0 5000 4000" xml:space="preserve">
<g>
	<g>
		<g>
			<g>
				<g>
					<path fill="#DBDAD9" d="M1260.655,3442.072l6.554,11.822c0,0,52.896,56.188-13.498,95.59
						c-66.388,39.393-92.296-21.51-92.296-21.51l-2.63-3.314c30.94-23.205,62.149-49.195,89.667-73.211L1260.655,3442.072z"/>
					<path fill="#DBDAD9" d="M877.326,3115.715c0,0,19.181-28.568-36.18-106.795l133.576-82.531l45.987,82.961l-114.228,87.766
						L877.326,3115.715z"/>
				</g>
			</g>
		</g>
		<path fill="#FCD4B5" d="M716.021,3348.443c0,0-0.521-6.449-1.4-17.377c-0.116-1.523-0.239-3.121-0.393-4.809
			c-0.6-7.482-1.344-16.613-2.197-26.871c-3.181-17.748-4.487-35.041-4.347-51.715c0.994-114.998,71.204-200.283,71.204-200.283
			l62.258-38.469c55.361,78.227,36.18,106.795,36.18,106.795l29.156-18.6l114.228-87.766l80.164-61.582
			c23.678-18.201,59.683-10.998,80.414,16.051c20.798,27.029,18.426,63.684-5.208,81.846l-58.108,44.617l1.69,2.113l73.242-56.27
			c27.053-20.742,65.834-15.664,86.547,11.352c20.737,27.053,15.71,65.803-11.311,86.6l-6.234,4.77
			c23.183-9.709,51.967-2.412,69.849,20.738c20.74,27.055,18.028,63.91-5.945,82.357l-15.271,11.736
			c19.768-4.02,43.602,5.605,59.605,26.482c20.739,27.059,20.553,62.021-0.493,78.178l-108.996,83.734l-12.203,9.377
			c-27.519,24.016-58.727,50.006-89.667,73.211c-18.933,14.205-37.768,27.375-55.597,38.383
			c-70.469,43.539-122.854,58.373-164.633,69.178c-22.577,5.83-42.053,10.48-59.587,17.848c-6.071,3.824-11.785-0.166-14.112-3.93
			l-168.027-271.961C688.694,3361.021,718.401,3352.289,716.021,3348.443z"/>
		<g>
			<path fill="#133589" d="M769.45,3519.898l-84.837-137.32c-8.929-14.449-27.898-18.932-42.356-10l-104.475,64.543
				c-14.453,8.934-18.929,27.906-10.002,42.348l84.843,137.324l35.656-22.025L769.45,3519.898z"/>
			<path fill="#1B43B6" d="M854.299,3657.223l-84.849-137.324l-121.172,74.869l-35.656,22.025l84.844,137.322
				c8.938,14.469,27.891,18.939,42.351,10.01l104.473-64.555C858.746,3690.645,863.234,3671.688,854.299,3657.223z"/>
		</g>
		<path fill="#133589" d="M728.065,3771.387c-14.038,8.674-32.45,4.314-41.119-9.723c-8.673-14.033-4.325-32.439,9.71-41.111
			c14.037-8.674,32.444-4.32,41.122,9.717C746.442,3744.305,742.101,3762.715,728.065,3771.387z"/>
		<path fill="#1B43B6" d="M659.082,3814.006c-14.031,8.664-32.442,4.316-41.114-9.717c-8.672-14.037-4.321-32.445,9.705-41.113
			c14.033-8.67,32.438-4.326,41.121,9.715C677.455,3786.92,673.118,3805.332,659.082,3814.006z"/>
		<g>
			<g>
				<polygon fill="#DBDAD9" points="1030.09,2590.879 1030.09,2590.879 1022.446,2604.715 1120.384,2763.236 1797.551,2675.139 
					1548.628,2272.236 				"/>
				<polygon fill="#EBEAEA" points="1299.69,1869.326 916.349,2432.99 1014.287,2591.5 1030.09,2590.879 1548.628,2272.236 				"/>
			</g>
			<g>
				<g>
					<path fill="#F561CD" d="M930.73,2437.98c-13.765-22.283-43.007-29.197-65.298-15.428l-497.261,320.24
						c-22.297,13.771-29.203,43.014-15.433,65.301l102.995,166.697l577.989-370.105L930.73,2437.98z"/>
					<path fill="#D346B9" d="M455.733,2974.791l102.754,166.318c13.777,22.289,43.014,29.188,65.305,15.416l497.266-320.234
						c22.292-13.771,29.192-43.006,15.422-65.295l-102.758-166.311L455.733,2974.791z"/>
				</g>
				<path fill="#EBEAEA" d="M819.748,2571.992c12.622,20.438,6.3,47.23-14.145,59.857l-161.43,99.742
					c-20.436,12.627-47.239,6.299-59.861-14.137l0,0c-12.629-20.436-6.296-47.234,14.144-59.857l161.437-99.74
					C780.331,2545.227,807.118,2551.557,819.748,2571.992L819.748,2571.992z"/>
			</g>
			<path fill="#1B43B6" d="M1833.223,2635.098c10.564,17.088,5.27,39.498-11.824,50.057l0,0
				c-17.092,10.561-39.5,5.262-50.055-11.822l-481.763-779.748c-10.558-17.091-5.269-39.502,11.823-50.062l0,0
				c17.093-10.561,39.502-5.262,50.06,11.827L1833.223,2635.098z"/>
			<g>
				<g>
					<path fill="#DBDAD9" d="M308.727,3065.35c43.222,69.951,134.334,92.613,207.024,53.025l-161.799-261.883
						C286.015,2903.785,265.515,2995.408,308.727,3065.35z"/>
				</g>
			</g>
			<g>
				<path fill="#DBDAD9" d="M1607.728,1882.898c-8.527-9.505-19.146-11.398-23.717-4.227l-73.407,115.059
					c-4.576,7.17-1.377,20.7,7.149,30.194c7.01,7.83,15.431,10.492,20.747,7.211c1.154-0.711,2.154-1.699,2.967-2.979
					l73.403-115.051C1619.444,1905.925,1616.247,1892.408,1607.728,1882.898z"/>
				<path fill="#DBDAD9" d="M1926.467,2398.795c4.691,11.881,1.631,22.221-6.833,23.107l-135.738,14.16
					c-8.461,0.881-19.125-8.027-23.803-19.906c-3.863-9.762-2.478-18.494,2.833-21.779c1.156-0.711,2.495-1.168,3.986-1.326
					l135.744-14.158C1911.119,2378.006,1921.772,2386.922,1926.467,2398.795z"/>
				<path fill="#DBDAD9" d="M1761.281,2116.561l-116.877,72.211c-6.798,4.193-6.719,16.641,0.163,27.779
					c6.89,11.146,17.979,16.779,24.774,12.576l116.874-72.207c6.794-4.197,6.717-16.637-0.171-27.785
					C1779.162,2117.994,1768.068,2112.361,1761.281,2116.561z"/>
			</g>
		</g>
	</g>
	<g>
		<polygon fill="none" points="0,3989.727 0,3990.873 711.368,3553.371 		"/>
		<path fill="#49494B" d="M809.509,3712.217l-98.141-158.846L0,3990.873l404.316,1.393l403.344-243.793
			C817.347,3742.49,818.18,3726.256,809.509,3712.217z"/>
		<path fill="#646468" d="M613.228,3394.525c-8.669-14.027-23.568-20.564-33.257-14.574L0,3732.971v256.756l711.368-436.355
			L613.228,3394.525z"/>
	</g>
</g>
<path fill="#F561CD" d="M3367.815,256.746c-449.79,29.647-832.803,260.203-1046.017,586.383
	c-65.684,100.485-115.252,210.046-145.695,325.604L1843.44,2064.92l373.952-232.254
	c190.116,473.484,712.648,794.004,1304.064,755.021c718.62-47.367,1266.783-607.565,1224.355-1251.236
	C4703.387,692.78,4086.436,209.378,3367.815,256.746z"/>
<g display="none">
	<g display="inline">
		<path fill="#CC5E2D" d="M2607.777,1101.589l76.22,103.006l6.95-128.662l81.947-21.595l58.985,95.258l23.882-122.006l144.6-35.087
			c-0.081,20.393-0.184,37.757-0.313,52.092s-0.245,29.321-0.341,44.95c-0.097,15.633-0.184,28.942-0.264,39.934
			c-0.08,10.991-0.53,32.402-1.349,64.229c-0.819,31.832-1.728,64.629-2.725,98.402c-0.997,33.771-2.231,76.912-3.702,129.424
			l-114.192,31.73l-44.428-100.674l-11.364,126.167l-90.426,3.775c-14.569-21.416-24.773-36.993-30.613-46.73
			c-2.902-4.807-10.581-15.047-23.03-30.719c-12.452-15.668-26.052-32.426-40.803-50.266c-14.75-17.838-28.907-34.601-42.474-50.289
			c-13.564-15.688-22.854-25.969-27.863-30.846c-5.135-4.842-13.938-14.211-26.42-28.113c-12.48-13.897-25.147-28.235-38.003-43.011
			c-12.853-14.774-29.153-33.718-48.895-56.832L2607.777,1101.589z"/>
		<path fill="#CC5E2D" d="M3292.133,924.554l44.277,121.283l-106.191,29.507l13.086,47.096l73.674-24.584l15.502,78.352
			l-79.278,43.184l8.569,23.083l130.93-55.38c4.48,16.124,10.489,29.992,18.026,41.61c7.415,11.651,19.418,29.47,36.009,53.458
			l-289.622,110.249c-7.595-27.792-13.885-51.379-18.877-70.754s-9.95-39.446-14.87-60.213
			c-4.922-20.767-8.447-38.033-10.576-51.808c-2.216-13.616-6.31-31.871-12.279-54.764c-5.968-22.89-12.072-45.321-18.305-67.29
			c-6.236-21.968-14.153-49.052-23.752-81.25L3292.133,924.554z"/>
		<path fill="#CC5E2D" d="M3484.309,873.899c5.826,6.871,8.158,16.212,7.002,28.021c-1.158,11.814-3.147,22.75-5.968,32.804
			c-3.03,10.243-9.955,22.68-20.777,37.309c-10.82,14.63-18.612,23.716-23.374,27.257c-4.763,3.545-14.391-2.203-28.884-17.242
			c-14.492-15.037-23.509-26.571-27.046-34.598c-3.467-7.784-7.152-17.631-11.05-29.543c-3.896-11.909-2.431-23.906,4.396-35.988
			c6.862-11.961,28.222-21.094,64.076-27.403C3464.519,860.725,3478.394,867.187,3484.309,873.899z"/>
		<path fill="#CC5E2D" d="M3637.857,1265.096l-102.328-398.575c13.434-12.743,40.823-24.14,82.17-34.192
			c41.343-10.05,81.388-12.558,120.134-7.526c38.745,5.036,68.499,20.828,89.263,47.376c20.761,26.551,17.219,70.074-10.633,130.568
			c-2.512,5.531-8.002,11.626-16.465,18.287c-8.466,6.661-17.396,13.06-26.789,19.196l75.297,69.375l100.464,80.992l-122.68,32.913
			l-97.251-87.76l37.912,98.372L3637.857,1265.096z M3676.699,1000.253c27.199-13.955,41.677-24.833,43.426-32.635
			c1.752-7.797-1.084-15.889-8.507-24.274c-7.422-8.384-14.235-13.869-20.438-16.456c-6.413-2.396-18.895-1.733-37.449,1.983
			L3676.699,1000.253z"/>
		<path fill="#CC5E2D" d="M4106.74,698.204l44.277,121.283l-106.191,29.507l13.086,47.096l73.673-24.584l15.503,78.352
			l-79.278,43.184l8.568,23.083l130.931-55.38c4.48,16.124,10.489,29.992,18.025,41.61c7.416,11.651,19.419,29.47,36.01,53.458
			l-289.622,110.25c-7.595-27.792-13.885-51.379-18.877-70.755s-9.95-39.446-14.87-60.213c-4.923-20.767-8.447-38.033-10.576-51.808
			c-2.217-13.616-6.31-31.871-12.279-54.764c-5.969-22.89-12.072-45.321-18.306-67.29c-6.235-21.968-14.152-49.052-23.751-81.25
			L4106.74,698.204z"/>
		<path fill="#CC5E2D" d="M2595.807,1673.899l32.156,127.002l45.923-19.42l-40.792-122.84l135.204-44.229
			c7.687,26.726,14.165,48.984,19.437,66.78c5.271,17.799,10.582,35.616,15.932,53.455c5.349,17.841,9.545,31.302,12.59,40.377
			c2.959,9.236,8.304,24.595,16.037,46.081c7.733,21.486,15.666,43.341,23.801,65.565c8.134,22.225,18.473,50.27,31.015,84.129
			c-22.958,8.079-39.994,14.443-51.104,19.096c-5.583,2.468-13.201,5.955-22.851,10.464c-9.651,4.511-19.204,9.027-28.654,13.542
			c-9.452,4.523-21.098,10.074-34.937,16.664l-42.533-147.43l-52.51,19.684l41.4,142.65l-126.495,51.602
			c-12.732-45.822-22.416-80.672-29.053-104.555c-3.301-11.88-9.194-33.321-17.68-64.33c-8.486-31.005-17.133-62.719-25.944-95.136
			c-8.812-32.417-19.991-73.707-33.539-123.876L2595.807,1673.899z"/>
		<path fill="#CC5E2D" d="M2847.837,1609.549l154.187-44.998l104.365,371.37l-143.032,51.3L2847.837,1609.549z"/>
		<path fill="#CC5E2D" d="M3198.425,1934.44l-106.343-334.779l-13.532-60.683c35.345-9.557,64.067-17.214,86.17-22.964
			c22.104-5.749,43.093-10.927,62.967-15.537c19.874-4.607,31.95-6.723,36.235-6.347c4.194,0.533,12.71,2.51,25.544,5.928
			c12.832,3.422,26.285,7.779,40.36,13.074c14.071,5.296,27.028,11.165,38.874,17.601c11.843,6.438,18.84,12.818,20.989,19.142
			c2.183,6.445,3.789,15.401,4.82,26.866c1.031,11.467,1.378,23.288,1.039,35.459c-0.339,12.175-1.369,23.625-3.089,34.353
			c-1.72,10.73-4.138,18.485-7.246,23.266c-2.85,4.317-5.544,8.366-8.086,12.138c-2.544,3.776-5.036,7.374-7.479,10.795
			l155.676,128.134l7.719,18.618l-141.861,47.058l-75.36-89.338c-0.027,10.717,1.393,23.936,4.262,39.656
			c2.867,15.725,6.764,36.677,11.688,62.86L3198.425,1934.44z M3246.904,1666.919c14.518-5.079,23.385-9.828,26.598-14.247
			c3.21-4.417,5.479-11.053,6.808-19.912c1.324-8.855-0.362-15.633-5.063-20.334c-4.789-4.546-19.692-6.019-44.713-4.422
			L3246.904,1666.919z"/>
		<path fill="#CC5E2D" d="M3446.975,1443.07l154.186-44.998l104.367,371.37l-143.033,51.3L3446.975,1443.07z"/>
		<path display="none" fill="#CC5E2D" d="M3682.931,1371.629l166.026-43.979l94.715,76.517l-24.647-97.161l132.729-39.036
			l96.669,381.736l-108.303,38.125l-160.345-152.693l44.504,172.149l-130.971,53.825L3682.931,1371.629z"/>
		<path display="none" fill="#CC5E2D" d="M4566.325,1523.205c-27.046,14.046-49.678,25.295-67.895,33.751
			c-18.217,8.459-36.534,16.322-54.949,23.594c-18.418,7.272-32.484,11.278-42.201,12.02c-19.625,1.275-45.298-0.763-77.015-6.121
			c-31.719-5.354-55.531-13.395-71.439-24.124c-8.135-5.311-17.811-13.102-29.021-23.374c-11.212-10.269-22.21-21.771-32.997-34.512
			c-10.786-12.736-20.459-26.046-29.017-39.925c-8.558-13.88-14.267-27.146-17.132-39.801c-2.709-12.568-2.843-30.092-0.408-52.579
			c2.436-22.483,6.955-45.221,13.563-68.211c6.604-22.989,14.882-43.83,24.836-62.529c9.951-18.696,20.935-30.626,32.951-35.795
			c23.854-10.023,47.541-18.53,71.062-25.524c23.521-6.991,46.305-9.111,68.354-6.36c22.083,2.875,60.456,10.561,115.117,23.055
			l-18.862,105.529c-13.146,1.566-24.103,2.78-32.872,3.649c-8.769,0.87-17.484,1.694-26.149,2.467
			c-8.665,0.777-15.028,1.141-19.088,1.093c-8.142,0.304-21.626,3.007-40.448,8.105c-18.824,5.102-30.605,10.399-35.348,15.894
			c-2.369,2.75-1.7,10.333,2.014,22.75c3.711,12.42,8.551,25.731,14.525,39.938c5.971,14.207,12.217,27.294,18.742,39.257
			c6.523,11.965,11.412,18.864,14.665,20.703c2,2.969,13.604,2.326,34.817-1.938c21.211-4.258,42.904-9.013,65.082-14.264
			l-4.547-16.365l-48.783,9.833l-33.193-91.261l173.452-38.403L4566.325,1523.205z"/>
	</g>
</g>
<text transform="matrix(0.9384 -0.4508 0.4331 0.9014 2659.3154 1311.689)" fill="#1B43B6" font-family="'Gontserrat-Light'" font-size="407.8492">CLICK </text>
<text transform="matrix(0.9384 -0.4508 0.4331 0.9014 2848.0576 1583.2227)" fill="#1B43B6" font-family="'Gontserrat-Light'" font-size="407.8492">HERE </text>
<text transform="matrix(0.9384 -0.4508 0.4331 0.9014 3342.4463 1724.1436)" fill="#1B43B6" font-family="'Gontserrat-Light'" font-size="407.8492">TO </text>
<text transform="matrix(0.9332 -0.4613 0.4431 0.8964 2888.0576 2332.2373)" fill="#1B43B6" font-family="'Gontserrat-Black'" font-size="407.8492">HIRE ME </text>
</svg>
